<svg width="300" height="300" viewBox="0 0 300 300" fill="none" xmlns="http://www.w3.org/2000/svg">
<g id="Frame 1">
<g clip-path="url(#clip0_102_45)">
<rect width="300" height="300" rx="150" fill="#1A1A1A"/>
<g id="MangekyouSasuke">
<g id="Group 1">
<path id="Vector 3" d="M277.541 81.7995C255.061 139.528 172.55 247.627 22.3476 218.2C45.8907 159.904 129.89 51.0085 277.541 81.7995Z" fill="#EB0B0B"/>
<path id="Vector 5" d="M151.065 2.65947C190.292 50.0919 244.76 175.434 148.823 297.341C109.606 248.68 55.1512 121.62 151.065 2.65947Z" fill="#EB0B0B"/>
<path id="Vector 4" d="M277.809 218.407C221.653 234.28 91.9123 229.406 22.1914 82.9242C79.4119 67.6155 210.644 73.2799 277.809 218.407Z" fill="#EB0B0B"/>
</g>
<g id="Group 2">
<path id="Vector 3_2" d="M278.9 82.3502L279.56 80.6575L277.884 80.3078C129.287 49.3017 44.7057 158.939 20.9952 217.631L20.2976 219.358L22.0206 219.695C173.148 249.322 256.245 140.509 278.9 82.3502Z" stroke="black" stroke-width="3"/>
<path id="Vector 5_2" d="M152.219 1.73096L151.027 0.289554L149.902 1.6855C53.3813 121.369 108.18 249.26 147.657 298.253L148.86 299.747L149.997 298.302C246.516 175.683 191.731 49.5207 152.219 1.73096Z" stroke="black" stroke-width="3"/>
<path id="Vector 4_2" d="M278.23 219.905L279.876 219.44L279.114 217.793C211.534 71.7242 79.4016 66.0145 21.7891 81.421L20.0944 81.8742L20.8938 83.5542C91.0287 230.949 221.651 235.891 278.23 219.905Z" stroke="black" stroke-width="3"/>
</g>
<g id="Group 3">
<path id="Vector 3_3" d="M278.9 82.3502L279.56 80.6575L277.884 80.3078C129.287 49.3017 44.7057 158.939 20.9952 217.631L20.2976 219.358L22.0206 219.695C173.148 249.322 256.245 140.509 278.9 82.3502Z" stroke="#1A1A1A" stroke-width="3"/>
<path id="Vector 5_3" d="M152.219 1.73096L151.027 0.289554L149.902 1.6855C53.3813 121.369 108.18 249.26 147.657 298.253L148.86 299.747L149.997 298.302C246.516 175.683 191.731 49.5207 152.219 1.73096Z" stroke="#1A1A1A" stroke-width="3"/>
<path id="Vector 4_3" d="M278.23 219.905L279.876 219.44L279.114 217.793C211.534 71.7242 79.4016 66.0145 21.7891 81.421L20.0944 81.8742L20.8938 83.5542C91.0287 230.949 221.651 235.891 278.23 219.905Z" stroke="#1A1A1A" stroke-width="3"/>
</g>
</g>
</g>
</g>
<defs>
<clipPath id="clip0_102_45">
<rect width="300" height="300" rx="150" fill="white"/>
</clipPath>
</defs>
</svg>
