<?xml version="1.0" encoding="UTF-8"?>
<svg id="Camada_1" data-name="Camada 1" xmlns="http://www.w3.org/2000/svg" viewBox="0 0 455.55 395.16">
  <g id="tipografia">
    <g id="xbox-x2">
      <path d="M370.08,277.5h-20.07l40.68,56.23-44.12,60.93h19.89l34.35-47.01,34.17,47.01h20.07l-44.11-60.93,40.68-56.23h-19.89l-30.92,42.49-30.74-42.49Z" style="fill: #f7f7f7;"/>
      <path d="M370.08,277.5h-20.07l40.68,56.23-44.12,60.93h19.89l34.35-47.01,34.17,47.01h20.07l-44.11-60.93,40.68-56.23h-19.89l-30.92,42.49-30.74-42.49Z" style="fill: none; stroke: #f7f7f7; stroke-linecap: round; stroke-linejoin: round;"/>
    </g>
    <g id="xbox-o">
      <path d="M231.16,334.67c1-43.9,31-59.99,59-59.99,30.5.49,56,20.97,56,59.99-1,44.87-30.5,59.01-56,59.99-43.5-.98-58-31.7-59-59.99ZM290.16,290.29c-21-1.05-40,11.71-41,44.38.5,24.39,12,43.41,41,43.9,22.5-1.95,36-17.56,36.5-43.9,0-29.26-17-43.41-36.5-44.38Z" style="fill: #f7f7f7; fill-rule: evenodd;"/>
      <path d="M231.16,334.67c1-43.9,31-59.99,59-59.99,30.5.49,56,20.97,56,59.99-1,44.87-30.5,59.01-56,59.99-43.5-.98-58-31.7-59-59.99ZM290.16,290.29c-21-1.05-40,11.71-41,44.38.5,24.39,12,43.41,41,43.9,22.5-1.95,36-17.56,36.5-43.9,0-29.26-17-43.41-36.5-44.38Z" style="fill: none; stroke: #f7f7f7;"/>
    </g>
    <g id="xbox-b">
      <path d="M103.04,340.15l10.5-14.5h15.5v-50h54.5c40,0,44.5,44.5,19.5,56,31,10,26,61.5-15.5,61.5h-58.5v-53h-26ZM147.04,325.65v-34.5h36.5c24,0,22,34.5,0,34.5h-36.5ZM147.04,377.15v-36h39.5c25,0,24.5,35.5,0,36h-39.5Z" style="fill: #f7f7f7; fill-rule: evenodd;"/>
      <path d="M103.04,340.15l10.5-14.5h15.5v-50h54.5c40,0,44.5,44.5,19.5,56,31,10,26,61.5-15.5,61.5h-58.5v-53h-26ZM147.04,325.65v-34.5h36.5c24,0,22,34.5,0,34.5h-36.5ZM147.04,377.15v-36h39.5c25,0,24.5,35.5,0,36h-39.5Z" style="fill: none; stroke: #f7f7f7; stroke-linecap: round; stroke-linejoin: round;"/>
    </g>
    <g id="xbox-x1">
      <path d="M24,276.09H3.93l40.68,56.23L.5,393.25h19.89l34.35-47.01,34.17,47.01h20.07l-44.11-60.93,40.68-56.23h-19.89l-30.92,42.49-30.74-42.49Z" style="fill: #f7f7f7;"/>
      <path d="M24,276.09H3.93l40.68,56.23L.5,393.25h19.89l34.35-47.01,34.17,47.01h20.07l-44.11-60.93,40.68-56.23h-19.89l-30.92,42.49-30.74-42.49Z" style="fill: none; stroke: #f7f7f7; stroke-linecap: round; stroke-linejoin: round;"/>
    </g>
  </g>
  <g id="xbox-logo">
    <path d="M221.96.51c-18.62-.36-40.32,6.69-51.35,14.83,16.82-1.45,29.65,3.07,51.17,14.1,21.23-11.42,34.35-15.55,50.81-14.1-13.56-9.58-32.91-14.83-50.63-14.83Z" style="fill: #f7f7f7;"/>
    <path d="M195.2,54.39c-17.18-16.45-31.33-27.72-41.4-26.04-29.83,24.95-44.12,86.42-9.22,128.91-5.97-23.5,21.7-66.54,50.62-102.88Z" style="fill: #f7f7f7;"/>
    <path d="M288.68,163.06c-1.81-17.36-31.1-55.69-66.9-84.07-30.74,23.32-65.63,63.64-67.08,85.16-.79,11.72,33.99,31.64,66.9,31.64s68.4-20.07,67.08-32.73Z" style="fill: #f7f7f7;"/>
    <path d="M247.28,54.39c17.18-16.45,31.33-27.72,41.4-26.04,29.83,24.95,44.12,86.42,9.22,128.91,5.97-23.5-21.7-66.54-50.62-102.88Z" style="fill: #f7f7f7;"/>
    <path d="M221.96.51c-18.62-.36-40.32,6.69-51.35,14.83,16.82-1.45,29.65,3.07,51.17,14.1,21.23-11.42,34.35-15.55,50.81-14.1-13.56-9.58-32.91-14.83-50.63-14.83Z" style="fill: none; stroke: #f7f7f7; stroke-linecap: round; stroke-linejoin: round;"/>
    <path d="M195.2,54.39c-17.18-16.45-31.33-27.72-41.4-26.04-29.83,24.95-44.12,86.42-9.22,128.91-5.97-23.5,21.7-66.54,50.62-102.88Z" style="fill: none; stroke: #f7f7f7; stroke-linecap: round; stroke-linejoin: round;"/>
    <path d="M288.68,163.06c-1.81-17.36-31.1-55.69-66.9-84.07-30.74,23.32-65.63,63.64-67.08,85.16-.79,11.72,33.99,31.64,66.9,31.64s68.4-20.07,67.08-32.73Z" style="fill: none; stroke: #f7f7f7; stroke-linecap: round; stroke-linejoin: round;"/>
    <path d="M247.28,54.39c17.18-16.45,31.33-27.72,41.4-26.04,29.83,24.95,44.12,86.42,9.22,128.91,5.97-23.5-21.7-66.54-50.62-102.88Z" style="fill: none; stroke: #f7f7f7; stroke-linecap: round; stroke-linejoin: round;"/>
  </g>
</svg>